<svg xmlns="http://www.w3.org/2000/svg" viewBox="0 100 1500 800" preserveAspectRatio="xMidYMid meet">
  <path fill="#4e4439" d="M -10.21875 638.847656 C 114.144531 684.820312 245.449219 640.027344 366.183594 604.726562 C 392.824219 596.9375 419.644531 589.933594 446 581.195312 C 471.84375 572.632812 497.453125 563.371094 523.164062 554.421875 C 572.59375 537.222656 623.730469 518.632812 676.125 513.324219 C 701.824219 510.71875 730.117188 508.386719 755.355469 515.386719 C 774.5625 520.714844 787.519531 533.320312 796.113281 551.003906 L 804.855469 544.253906 C 788.527344 529.007812 756.316406 535.03125 738.027344 542.816406 C 721.027344 550.046875 706.53125 564.945312 713.785156 584.511719 C 722 606.671875 748.632812 616.886719 769.894531 620.859375 C 807.195312 627.832031 847.1875 627.101562 884.945312 625.09375 C 957.472656 621.234375 1028.613281 605.902344 1100.28125 595.160156 C 1140.5625 589.125 1181.148438 584.375 1221.894531 583.207031 C 1263.933594 582.003906 1306.019531 584.285156 1347.789062 589.007812 C 1443.082031 599.773438 1536.402344 623.175781 1629.015625 647.355469 C 1635.953125 649.167969 1638.910156 638.433594 1631.972656 636.621094 C 1480.753906 597.136719 1325.773438 560.34375 1168.398438 575.515625 C 1099.21875 582.1875 1031.214844 596.441406 962.472656 606.152344 C 928.335938 610.976562 893.957031 614.289062 859.46875 614.855469 C 840.714844 615.164062 821.949219 614.679688 803.238281 613.371094 C 786.847656 612.226562 770.355469 610.90625 754.773438 605.316406 C 740.636719 600.246094 712.316406 582.5 726.378906 563.976562 C 734.199219 553.683594 749.9375 549.414062 762.058594 547.558594 C 772.175781 546.007812 788.746094 544.4375 796.984375 552.132812 C 801.734375 556.5625 808.46875 551.023438 805.726562 545.382812 C 798.402344 530.316406 787.570312 517.25 772.253906 509.882812 C 754.25 501.226562 733.566406 499.859375 713.890625 500.050781 C 660.46875 500.578125 609.542969 513.992188 559.074219 530.503906 C 507.660156 547.324219 457.265625 567.640625 405.125 582.175781 C 340.226562 600.269531 276.070312 622.097656 210.007812 635.699219 C 138.324219 650.460938 62.386719 653.855469 -7.257812 628.109375 C -13.988281 625.617188 -16.890625 636.375 -10.21875 638.84375 Z M -10.21875 638.847656 " fill-opacity="1" fill-rule="nonzero"/>
  <path fill="#4e4439" d="M 1093.605469 510.660156 C 1093.492188 581.804688 1071.269531 651.605469 1029.960938 709.5625 C 990.136719 765.4375 933.191406 808.910156 868.695312 832.363281 C 801.214844 856.910156 726.519531 859.644531 657.4375 840.015625 C 590.929688 821.121094 531.195312 781.757812 487.117188 728.546875 C 442.332031 674.492188 414.996094 606.632812 409.828125 536.625 C 404.585938 465.570312 421.488281 393.914062 458.519531 332.996094 C 494.261719 274.195312 547.648438 226.988281 610.285156 198.53125 C 675.304688 168.988281 749.671875 160.855469 819.613281 175.105469 C 887.652344 188.972656 950.460938 223.734375 998.5 273.847656 C 1046.949219 324.390625 1079 389.351562 1089.699219 458.535156 C 1092.367188 475.769531 1093.578125 493.222656 1093.605469 510.65625 C 1093.617188 517.816406 1104.75 517.832031 1104.738281 510.65625 C 1104.625 437.699219 1081.957031 365.597656 1039.574219 306.132812 C 998.160156 248.027344 939.667969 203.1875 872.664062 178.582031 C 803.171875 153.058594 725.667969 150.335938 654.476562 170.5625 C 585.917969 190.039062 523.867188 230.6875 478.566406 285.703125 C 432.414062 341.761719 404.351562 411.148438 398.777344 483.570312 C 393.136719 556.804688 410.738281 631.152344 448.90625 693.9375 C 485.753906 754.554688 540.933594 803.679688 605.640625 832.835938 C 673.332031 863.339844 749.816406 871.769531 822.570312 856.9375 C 892.699219 842.644531 957.75 806.359375 1007.101562 754.570312 C 1056.640625 702.582031 1089.847656 635.691406 1100.605469 564.640625 C 1103.3125 546.765625 1104.714844 528.734375 1104.742188 510.65625 C 1104.753906 503.492188 1093.621094 503.480469 1093.609375 510.65625 Z M 1093.605469 510.660156 " fill-opacity="1" fill-rule="nonzero"/>
</svg>
