<svg xmlns="http://www.w3.org/2000/svg" xmlns:xlink="http://www.w3.org/1999/xlink" width="2000" zoomAndPan="magnify" viewBox="0 0 1500 1499.999933" height="2000" preserveAspectRatio="xMidYMid meet" version="1.0"><defs><g/></defs><rect x="-150" width="1800" fill="#ffffff" y="-149.999993" height="1799.99992" fill-opacity="1"/><rect x="-150" width="1800" fill="#fff5eb" y="-149.999993" height="1799.99992" fill-opacity="1"/><path fill="#4e4439" d="M -10.21875 638.847656 C 114.144531 684.820312 245.449219 640.027344 366.183594 604.726562 C 392.824219 596.9375 419.644531 589.933594 446 581.195312 C 471.84375 572.632812 497.453125 563.371094 523.164062 554.421875 C 572.59375 537.222656 623.730469 518.632812 676.125 513.324219 C 701.824219 510.71875 730.117188 508.386719 755.355469 515.386719 C 774.5625 520.714844 787.519531 533.320312 796.113281 551.003906 L 804.855469 544.253906 C 788.527344 529.007812 756.316406 535.03125 738.027344 542.816406 C 721.027344 550.046875 706.53125 564.945312 713.785156 584.511719 C 722 606.671875 748.632812 616.886719 769.894531 620.859375 C 807.195312 627.832031 847.1875 627.101562 884.945312 625.09375 C 957.472656 621.234375 1028.613281 605.902344 1100.28125 595.160156 C 1140.5625 589.125 1181.148438 584.375 1221.894531 583.207031 C 1263.933594 582.003906 1306.019531 584.285156 1347.789062 589.007812 C 1443.082031 599.773438 1536.402344 623.175781 1629.015625 647.355469 C 1635.953125 649.167969 1638.910156 638.433594 1631.972656 636.621094 C 1480.753906 597.136719 1325.773438 560.34375 1168.398438 575.515625 C 1099.21875 582.1875 1031.214844 596.441406 962.472656 606.152344 C 928.335938 610.976562 893.957031 614.289062 859.46875 614.855469 C 840.714844 615.164062 821.949219 614.679688 803.238281 613.371094 C 786.847656 612.226562 770.355469 610.90625 754.773438 605.316406 C 740.636719 600.246094 712.316406 582.5 726.378906 563.976562 C 734.199219 553.683594 749.9375 549.414062 762.058594 547.558594 C 772.175781 546.007812 788.746094 544.4375 796.984375 552.132812 C 801.734375 556.5625 808.46875 551.023438 805.726562 545.382812 C 798.402344 530.316406 787.570312 517.25 772.253906 509.882812 C 754.25 501.226562 733.566406 499.859375 713.890625 500.050781 C 660.46875 500.578125 609.542969 513.992188 559.074219 530.503906 C 507.660156 547.324219 457.265625 567.640625 405.125 582.175781 C 340.226562 600.269531 276.070312 622.097656 210.007812 635.699219 C 138.324219 650.460938 62.386719 653.855469 -7.257812 628.109375 C -13.988281 625.617188 -16.890625 636.375 -10.21875 638.84375 Z M -10.21875 638.847656 " fill-opacity="1" fill-rule="nonzero"/><path fill="#4e4439" d="M 1093.605469 510.660156 C 1093.492188 581.804688 1071.269531 651.605469 1029.960938 709.5625 C 990.136719 765.4375 933.191406 808.910156 868.695312 832.363281 C 801.214844 856.910156 726.519531 859.644531 657.4375 840.015625 C 590.929688 821.121094 531.195312 781.757812 487.117188 728.546875 C 442.332031 674.492188 414.996094 606.632812 409.828125 536.625 C 404.585938 465.570312 421.488281 393.914062 458.519531 332.996094 C 494.261719 274.195312 547.648438 226.988281 610.285156 198.53125 C 675.304688 168.988281 749.671875 160.855469 819.613281 175.105469 C 887.652344 188.972656 950.460938 223.734375 998.5 273.847656 C 1046.949219 324.390625 1079 389.351562 1089.699219 458.535156 C 1092.367188 475.769531 1093.578125 493.222656 1093.605469 510.65625 C 1093.617188 517.816406 1104.75 517.832031 1104.738281 510.65625 C 1104.625 437.699219 1081.957031 365.597656 1039.574219 306.132812 C 998.160156 248.027344 939.667969 203.1875 872.664062 178.582031 C 803.171875 153.058594 725.667969 150.335938 654.476562 170.5625 C 585.917969 190.039062 523.867188 230.6875 478.566406 285.703125 C 432.414062 341.761719 404.351562 411.148438 398.777344 483.570312 C 393.136719 556.804688 410.738281 631.152344 448.90625 693.9375 C 485.753906 754.554688 540.933594 803.679688 605.640625 832.835938 C 673.332031 863.339844 749.816406 871.769531 822.570312 856.9375 C 892.699219 842.644531 957.75 806.359375 1007.101562 754.570312 C 1056.640625 702.582031 1089.847656 635.691406 1100.605469 564.640625 C 1103.3125 546.765625 1104.714844 528.734375 1104.742188 510.65625 C 1104.753906 503.492188 1093.621094 503.480469 1093.609375 510.65625 Z M 1093.605469 510.660156 " fill-opacity="1" fill-rule="nonzero"/><g fill="#4e4439" fill-opacity="1"><g transform="translate(426.615237, 1090.560462)"><g><path d="M 25.203125 0 L 25.203125 -146.984375 L 44.3125 -146.984375 L 44.3125 -11.546875 L 120.109375 -11.546875 L 120.109375 0 Z M 25.203125 0 "/></g></g></g><g fill="#4e4439" fill-opacity="1"><g transform="translate(553.026001, 1090.560462)"><g><path d="M 16.796875 -146.984375 L 16.796875 -56.703125 C 16.796875 -50.960938 17.351562 -44.625 18.46875 -37.6875 C 19.59375 -30.757812 22.253906 -24.320312 26.453125 -18.375 C 30.648438 -12.425781 36.878906 -7.457031 45.140625 -3.46875 C 53.398438 0.519531 64.671875 2.515625 78.953125 2.515625 C 87.910156 2.515625 95.851562 1.117188 102.78125 -1.671875 C 109.71875 -4.472656 115.53125 -8.320312 120.21875 -13.21875 C 124.90625 -18.125 128.4375 -23.832031 130.8125 -30.34375 C 133.195312 -36.851562 134.390625 -43.816406 134.390625 -51.234375 L 134.390625 -146.984375 L 125.15625 -146.984375 L 125.15625 -58.171875 C 125.15625 -55.085938 125.082031 -51.96875 124.9375 -48.8125 C 124.800781 -45.664062 124.378906 -42.515625 123.671875 -39.359375 C 122.972656 -36.210938 121.890625 -33.097656 120.421875 -30.015625 C 118.953125 -26.941406 116.816406 -23.863281 114.015625 -20.78125 C 108.984375 -15.320312 103.316406 -11.613281 97.015625 -9.65625 C 90.710938 -7.695312 84.132812 -6.71875 77.28125 -6.71875 C 71.394531 -6.71875 66.175781 -7.625 61.625 -9.4375 C 57.082031 -11.257812 52.78125 -13.992188 48.71875 -17.640625 C 45.5 -20.441406 43.046875 -23.238281 41.359375 -26.03125 C 39.679688 -28.832031 38.421875 -31.597656 37.578125 -34.328125 C 36.742188 -37.054688 36.253906 -39.820312 36.109375 -42.625 C 35.972656 -45.425781 35.90625 -48.226562 35.90625 -51.03125 L 35.90625 -146.984375 Z M 16.796875 -146.984375 "/></g></g></g><g fill="#4e4439" fill-opacity="1"><g transform="translate(704.214963, 1090.560462)"><g><path d="M 39.484375 -146.984375 L 25.203125 -146.984375 L 25.203125 0 L 34.4375 0 L 34.4375 -119.90625 L 35.28125 -119.90625 L 100.15625 2.515625 L 103.9375 2.515625 L 170.296875 -119.0625 L 171.140625 -119.0625 L 171.140625 0 L 190.25 0 L 190.25 -146.984375 L 175.75 -146.984375 L 107.71875 -20.78125 L 106.875 -20.78125 Z M 39.484375 -146.984375 "/></g></g></g><g fill="#4e4439" fill-opacity="1"><g transform="translate(919.659217, 1090.560462)"><g><path d="M 106.875 -43.25 L 127.046875 0 L 147.40625 0 L 78.953125 -146.984375 L 68.453125 -146.984375 L 6.296875 0 L 15.953125 0 L 34.4375 -43.25 Z M 102.46875 -52.703125 L 38.421875 -52.703125 L 68.671875 -123.46875 L 69.5 -123.46875 Z M 102.46875 -52.703125 "/></g></g></g><g fill="#9b5856" fill-opacity="1"><g transform="translate(260.733409, 1232.820234)"><g><path d="M 26.53125 0 L 26.53125 -45.15625 L 45.296875 -45.15625 L 45.296875 -49.015625 L 1.40625 -49.015625 L 1.40625 -45.15625 L 20.171875 -45.15625 L 20.171875 0 Z M 26.53125 0 "/></g></g></g><g fill="#9b5856" fill-opacity="1"><g transform="translate(307.436481, 1232.820234)"><g><path d="M 14.765625 -24.359375 L 44.109375 -24.359375 L 44.109375 0 L 50.484375 0 L 50.484375 -49.015625 L 44.109375 -49.015625 L 44.109375 -27.59375 L 14.765625 -27.59375 L 14.765625 -49.015625 L 8.40625 -49.015625 L 8.40625 0 L 14.765625 0 Z M 14.765625 -24.359375 "/></g></g></g><g fill="#9b5856" fill-opacity="1"><g transform="translate(366.322965, 1232.820234)"><g><path d="M 8.40625 -49.015625 L 8.40625 0 L 40.046875 0 L 40.046875 -3.84375 L 14.765625 -3.84375 L 14.765625 -24.359375 L 36.484375 -24.359375 L 36.484375 -27.59375 L 14.765625 -27.59375 L 14.765625 -45.15625 L 40.046875 -45.15625 L 40.046875 -49.015625 Z M 8.40625 -49.015625 "/></g></g></g><g fill="#9b5856" fill-opacity="1"><g transform="translate(408.474768, 1232.820234)"><g><path d="M 8.40625 -49.015625 L 8.40625 0 L 14.765625 0 L 14.765625 -21.640625 L 17.859375 -21.640625 C 19.160156 -21.640625 20.242188 -21.519531 21.109375 -21.28125 C 21.972656 -21.050781 22.753906 -20.65625 23.453125 -20.09375 C 24.148438 -19.53125 24.800781 -18.804688 25.40625 -17.921875 C 26.019531 -17.035156 26.75 -15.941406 27.59375 -14.640625 L 33.125 -6.4375 C 33.820312 -5.363281 34.507812 -4.382812 35.1875 -3.5 C 35.863281 -2.613281 36.597656 -1.851562 37.390625 -1.21875 C 38.179688 -0.59375 39.078125 -0.09375 40.078125 0.28125 C 41.085938 0.65625 42.289062 0.84375 43.6875 0.84375 C 44.71875 0.84375 45.554688 0.796875 46.203125 0.703125 C 46.859375 0.609375 47.515625 0.375 48.171875 0 L 48.171875 -2.59375 C 47.941406 -2.539062 47.707031 -2.503906 47.46875 -2.484375 C 47.238281 -2.460938 47.003906 -2.453125 46.765625 -2.453125 C 45.785156 -2.453125 44.921875 -2.59375 44.171875 -2.875 C 43.429688 -3.15625 42.734375 -3.5625 42.078125 -4.09375 C 41.421875 -4.632812 40.789062 -5.289062 40.1875 -6.0625 C 39.582031 -6.832031 38.953125 -7.707031 38.296875 -8.6875 C 36.335938 -11.53125 34.820312 -13.800781 33.75 -15.5 C 32.675781 -17.207031 31.820312 -18.523438 31.1875 -19.453125 C 30.5625 -20.390625 30.050781 -21.066406 29.65625 -21.484375 C 29.257812 -21.910156 28.78125 -22.265625 28.21875 -22.546875 L 27.515625 -22.890625 L 27.515625 -23.171875 C 29.753906 -23.316406 31.675781 -23.804688 33.28125 -24.640625 C 34.894531 -25.484375 36.210938 -26.535156 37.234375 -27.796875 C 38.265625 -29.054688 39.015625 -30.421875 39.484375 -31.890625 C 39.953125 -33.359375 40.1875 -34.796875 40.1875 -36.203125 C 40.1875 -37.460938 39.941406 -38.835938 39.453125 -40.328125 C 38.960938 -41.816406 38.117188 -43.203125 36.921875 -44.484375 C 35.734375 -45.773438 34.113281 -46.851562 32.0625 -47.71875 C 30.007812 -48.582031 27.421875 -49.015625 24.296875 -49.015625 Z M 14.765625 -45.9375 L 21.84375 -45.9375 C 23.613281 -45.9375 25.210938 -45.675781 26.640625 -45.15625 C 28.066406 -44.644531 29.289062 -43.929688 30.3125 -43.015625 C 31.34375 -42.109375 32.125 -41.023438 32.65625 -39.765625 C 33.195312 -38.503906 33.46875 -37.128906 33.46875 -35.640625 C 33.46875 -34.378906 33.222656 -33.101562 32.734375 -31.8125 C 32.242188 -30.53125 31.507812 -29.363281 30.53125 -28.3125 C 29.550781 -27.269531 28.347656 -26.421875 26.921875 -25.765625 C 25.492188 -25.109375 23.847656 -24.78125 21.984375 -24.78125 L 14.765625 -24.78125 Z M 14.765625 -45.9375 "/></g></g></g><g fill="#9b5856" fill-opacity="1"><g transform="translate(458.748841, 1232.820234)"><g><path d="M 35.640625 -14.421875 L 42.359375 0 L 49.15625 0 L 26.328125 -49.015625 L 22.828125 -49.015625 L 2.09375 0 L 5.328125 0 L 11.484375 -14.421875 Z M 34.171875 -17.578125 L 12.8125 -17.578125 L 22.890625 -41.171875 L 23.171875 -41.171875 Z M 34.171875 -17.578125 "/></g></g></g><g fill="#9b5856" fill-opacity="1"><g transform="translate(510.003194, 1232.820234)"><g><path d="M 14.765625 -20.4375 C 15.984375 -20.113281 17.289062 -19.847656 18.6875 -19.640625 C 20.09375 -19.429688 21.632812 -19.328125 23.3125 -19.328125 C 26.164062 -19.328125 28.6875 -19.722656 30.875 -20.515625 C 33.070312 -21.304688 34.90625 -22.390625 36.375 -23.765625 C 37.84375 -25.140625 38.945312 -26.726562 39.6875 -28.53125 C 40.4375 -30.332031 40.8125 -32.257812 40.8125 -34.3125 C 40.8125 -36.269531 40.484375 -38.144531 39.828125 -39.9375 C 39.179688 -41.738281 38.191406 -43.300781 36.859375 -44.625 C 35.535156 -45.957031 33.867188 -47.019531 31.859375 -47.8125 C 29.847656 -48.613281 27.488281 -49.015625 24.78125 -49.015625 L 8.40625 -49.015625 L 8.40625 0 L 14.765625 0 Z M 14.765625 -45.9375 L 22.125 -45.9375 C 24.082031 -45.9375 25.804688 -45.582031 27.296875 -44.875 C 28.796875 -44.175781 30.035156 -43.253906 31.015625 -42.109375 C 31.992188 -40.972656 32.726562 -39.691406 33.21875 -38.265625 C 33.707031 -36.835938 33.953125 -35.425781 33.953125 -34.03125 C 33.953125 -32.675781 33.726562 -31.304688 33.28125 -29.921875 C 32.84375 -28.546875 32.132812 -27.296875 31.15625 -26.171875 C 30.175781 -25.054688 28.9375 -24.148438 27.4375 -23.453125 C 25.945312 -22.753906 24.15625 -22.40625 22.0625 -22.40625 C 20.613281 -22.40625 19.28125 -22.460938 18.0625 -22.578125 C 16.851562 -22.691406 15.753906 -22.9375 14.765625 -23.3125 Z M 14.765625 -45.9375 "/></g></g></g><g fill="#9b5856" fill-opacity="1"><g transform="translate(552.925195, 1232.820234)"><g><path d="M 8.40625 -49.015625 L 8.40625 0 L 40.046875 0 L 40.046875 -3.84375 L 14.765625 -3.84375 L 14.765625 -24.359375 L 36.484375 -24.359375 L 36.484375 -27.59375 L 14.765625 -27.59375 L 14.765625 -45.15625 L 40.046875 -45.15625 L 40.046875 -49.015625 Z M 8.40625 -49.015625 "/></g></g></g><g fill="#9b5856" fill-opacity="1"><g transform="translate(595.077008, 1232.820234)"><g><path d="M 5.59375 -49.015625 L 5.59375 -18.90625 C 5.59375 -16.988281 5.78125 -14.875 6.15625 -12.5625 C 6.53125 -10.257812 7.414062 -8.113281 8.8125 -6.125 C 10.21875 -4.144531 12.296875 -2.488281 15.046875 -1.15625 C 17.804688 0.175781 21.566406 0.84375 26.328125 0.84375 C 29.316406 0.84375 31.960938 0.378906 34.265625 -0.546875 C 36.578125 -1.484375 38.515625 -2.769531 40.078125 -4.40625 C 41.640625 -6.039062 42.816406 -7.941406 43.609375 -10.109375 C 44.410156 -12.285156 44.8125 -14.609375 44.8125 -17.078125 L 44.8125 -49.015625 L 41.734375 -49.015625 L 41.734375 -19.390625 C 41.734375 -18.367188 41.707031 -17.332031 41.65625 -16.28125 C 41.613281 -15.226562 41.472656 -14.175781 41.234375 -13.125 C 41.003906 -12.070312 40.644531 -11.03125 40.15625 -10 C 39.664062 -8.976562 38.953125 -7.957031 38.015625 -6.9375 C 36.335938 -5.113281 34.445312 -3.875 32.34375 -3.21875 C 30.25 -2.5625 28.054688 -2.234375 25.765625 -2.234375 C 23.804688 -2.234375 22.066406 -2.535156 20.546875 -3.140625 C 19.035156 -3.753906 17.601562 -4.664062 16.25 -5.875 C 15.175781 -6.8125 14.359375 -7.742188 13.796875 -8.671875 C 13.234375 -9.609375 12.8125 -10.53125 12.53125 -11.4375 C 12.25 -12.351562 12.082031 -13.273438 12.03125 -14.203125 C 11.988281 -15.140625 11.96875 -16.078125 11.96875 -17.015625 L 11.96875 -49.015625 Z M 5.59375 -49.015625 "/></g></g></g><g fill="#9b5856" fill-opacity="1"><g transform="translate(645.491112, 1232.820234)"><g><path d="M 26.53125 0 L 26.53125 -45.15625 L 45.296875 -45.15625 L 45.296875 -49.015625 L 1.40625 -49.015625 L 1.40625 -45.15625 L 20.171875 -45.15625 L 20.171875 0 Z M 26.53125 0 "/></g></g></g><g fill="#9b5856" fill-opacity="1"><g transform="translate(692.194172, 1232.820234)"><g><path d="M 11.203125 -49.015625 L 11.203125 0 L 17.578125 0 L 17.578125 -49.015625 Z M 11.203125 -49.015625 "/></g></g></g><g fill="#9b5856" fill-opacity="1"><g transform="translate(720.972262, 1232.820234)"><g><path d="M 49.640625 -9.03125 C 44.878906 -4.550781 39.234375 -2.3125 32.703125 -2.3125 C 29.054688 -2.3125 25.832031 -2.941406 23.03125 -4.203125 C 20.226562 -5.460938 17.894531 -7.140625 16.03125 -9.234375 C 14.164062 -11.335938 12.753906 -13.765625 11.796875 -16.515625 C 10.835938 -19.273438 10.359375 -22.148438 10.359375 -25.140625 C 10.359375 -28.304688 10.859375 -31.207031 11.859375 -33.84375 C 12.867188 -36.488281 14.28125 -38.765625 16.09375 -40.671875 C 17.914062 -42.585938 20.078125 -44.082031 22.578125 -45.15625 C 25.078125 -46.226562 27.796875 -46.765625 30.734375 -46.765625 C 32.742188 -46.765625 34.578125 -46.53125 36.234375 -46.0625 C 37.890625 -45.601562 39.359375 -45 40.640625 -44.25 C 41.921875 -43.5 42.96875 -42.644531 43.78125 -41.6875 C 44.601562 -40.738281 45.179688 -39.769531 45.515625 -38.78125 L 50.6875 -38.78125 C 49.988281 -40.375 49.085938 -41.847656 47.984375 -43.203125 C 46.890625 -44.554688 45.523438 -45.722656 43.890625 -46.703125 C 42.265625 -47.679688 40.351562 -48.445312 38.15625 -49 C 35.96875 -49.5625 33.472656 -49.84375 30.671875 -49.84375 C 26.609375 -49.84375 22.90625 -49.257812 19.5625 -48.09375 C 16.226562 -46.925781 13.367188 -45.257812 10.984375 -43.09375 C 8.609375 -40.925781 6.765625 -38.3125 5.453125 -35.25 C 4.148438 -32.195312 3.5 -28.78125 3.5 -25 C 3.5 -21.726562 4.023438 -18.539062 5.078125 -15.4375 C 6.128906 -12.332031 7.75 -9.578125 9.9375 -7.171875 C 12.132812 -4.773438 14.9375 -2.835938 18.34375 -1.359375 C 21.75 0.109375 25.8125 0.84375 30.53125 0.84375 C 33.519531 0.84375 36.191406 0.5625 38.546875 0 C 40.898438 -0.5625 42.953125 -1.25 44.703125 -2.0625 C 46.453125 -2.882812 47.910156 -3.757812 49.078125 -4.6875 C 50.242188 -5.625 51.128906 -6.441406 51.734375 -7.140625 Z M 49.640625 -9.03125 "/></g></g></g><g fill="#9b5856" fill-opacity="1"><g transform="translate(774.117109, 1232.820234)"><g/></g></g><g fill="#9b5856" fill-opacity="1"><g transform="translate(798.623988, 1232.820234)"><g><path d="M 8.40625 0 L 25.96875 0 C 29.101562 0 31.742188 -0.40625 33.890625 -1.21875 C 36.035156 -2.039062 37.757812 -3.101562 39.0625 -4.40625 C 40.375 -5.71875 41.320312 -7.203125 41.90625 -8.859375 C 42.488281 -10.515625 42.78125 -12.179688 42.78125 -13.859375 C 42.78125 -16.523438 42.207031 -18.648438 41.0625 -20.234375 C 39.914062 -21.816406 38.550781 -23.03125 36.96875 -23.875 C 35.382812 -24.71875 33.75 -25.273438 32.0625 -25.546875 C 30.382812 -25.828125 29.03125 -25.992188 28 -26.046875 L 28 -26.328125 C 29.632812 -26.328125 31.175781 -26.640625 32.625 -27.265625 C 34.070312 -27.898438 35.34375 -28.71875 36.4375 -29.71875 C 37.539062 -30.726562 38.414062 -31.894531 39.0625 -33.21875 C 39.71875 -34.550781 40.046875 -35.960938 40.046875 -37.453125 C 40.046875 -38.765625 39.765625 -40.097656 39.203125 -41.453125 C 38.648438 -42.804688 37.800781 -44.039062 36.65625 -45.15625 C 35.507812 -46.28125 34.035156 -47.203125 32.234375 -47.921875 C 30.441406 -48.648438 28.332031 -49.015625 25.90625 -49.015625 L 8.40625 -49.015625 Z M 14.765625 -3.078125 L 14.765625 -24.5 L 22.46875 -24.5 C 24.757812 -24.5 26.742188 -24.195312 28.421875 -23.59375 C 30.109375 -22.988281 31.5 -22.171875 32.59375 -21.140625 C 33.6875 -20.117188 34.5 -18.929688 35.03125 -17.578125 C 35.570312 -16.222656 35.84375 -14.796875 35.84375 -13.296875 C 35.84375 -11.671875 35.550781 -10.226562 34.96875 -8.96875 C 34.382812 -7.707031 33.601562 -6.628906 32.625 -5.734375 C 31.644531 -4.847656 30.488281 -4.179688 29.15625 -3.734375 C 27.832031 -3.296875 26.421875 -3.078125 24.921875 -3.078125 Z M 14.765625 -27.59375 L 14.765625 -45.9375 L 23.3125 -45.9375 C 25.132812 -45.9375 26.6875 -45.675781 27.96875 -45.15625 C 29.25 -44.644531 30.296875 -43.96875 31.109375 -43.125 C 31.929688 -42.289062 32.53125 -41.335938 32.90625 -40.265625 C 33.28125 -39.191406 33.46875 -38.113281 33.46875 -37.03125 C 33.46875 -35.6875 33.195312 -34.425781 32.65625 -33.25 C 32.125 -32.082031 31.378906 -31.078125 30.421875 -30.234375 C 29.460938 -29.398438 28.363281 -28.75 27.125 -28.28125 C 25.894531 -27.820312 24.578125 -27.59375 23.171875 -27.59375 Z M 14.765625 -27.59375 "/></g></g></g><g fill="#9b5856" fill-opacity="1"><g transform="translate(844.906912, 1232.820234)"><g><path d="M 3.5 -24.5 C 3.5 -21.882812 4 -19.09375 5 -16.125 C 6.007812 -13.164062 7.585938 -10.425781 9.734375 -7.90625 C 11.878906 -5.382812 14.609375 -3.296875 17.921875 -1.640625 C 21.234375 0.015625 25.203125 0.84375 29.828125 0.84375 C 32.953125 0.84375 35.785156 0.457031 38.328125 -0.3125 C 40.878906 -1.082031 43.164062 -2.117188 45.1875 -3.421875 C 47.21875 -4.734375 48.976562 -6.238281 50.46875 -7.9375 C 51.96875 -9.644531 53.195312 -11.441406 54.15625 -13.328125 C 55.113281 -15.222656 55.835938 -17.128906 56.328125 -19.046875 C 56.816406 -20.960938 57.0625 -22.78125 57.0625 -24.5 C 57.0625 -27.113281 56.523438 -29.898438 55.453125 -32.859375 C 54.378906 -35.828125 52.722656 -38.570312 50.484375 -41.09375 C 48.242188 -43.613281 45.40625 -45.703125 41.96875 -47.359375 C 38.539062 -49.015625 34.492188 -49.84375 29.828125 -49.84375 C 25.203125 -49.84375 21.234375 -49.023438 17.921875 -47.390625 C 14.609375 -45.765625 11.878906 -43.703125 9.734375 -41.203125 C 7.585938 -38.703125 6.007812 -35.957031 5 -32.96875 C 4 -29.988281 3.5 -27.164062 3.5 -24.5 Z M 10.359375 -24.5 C 10.359375 -27.769531 10.859375 -30.769531 11.859375 -33.5 C 12.867188 -36.226562 14.25 -38.570312 16 -40.53125 C 17.75 -42.5 19.8125 -44.03125 22.1875 -45.125 C 24.570312 -46.21875 27.164062 -46.765625 29.96875 -46.765625 C 32.71875 -46.765625 35.316406 -46.21875 37.765625 -45.125 C 40.222656 -44.03125 42.375 -42.5 44.21875 -40.53125 C 46.0625 -38.570312 47.519531 -36.226562 48.59375 -33.5 C 49.664062 -30.769531 50.203125 -27.769531 50.203125 -24.5 C 50.203125 -21.238281 49.664062 -18.238281 48.59375 -15.5 C 47.519531 -12.769531 46.0625 -10.425781 44.21875 -8.46875 C 42.375 -6.507812 40.222656 -4.976562 37.765625 -3.875 C 35.316406 -2.78125 32.71875 -2.234375 29.96875 -2.234375 C 27.164062 -2.234375 24.570312 -2.78125 22.1875 -3.875 C 19.8125 -4.976562 17.75 -6.507812 16 -8.46875 C 14.25 -10.425781 12.867188 -12.769531 11.859375 -15.5 C 10.859375 -18.238281 10.359375 -21.238281 10.359375 -24.5 Z M 10.359375 -24.5 "/></g></g></g><g fill="#9b5856" fill-opacity="1"><g transform="translate(905.473893, 1232.820234)"><g><path d="M 9.109375 0 L 9.109375 -49.015625 L 25.203125 -49.015625 C 29.078125 -49.015625 32.625 -48.394531 35.84375 -47.15625 C 39.0625 -45.914062 41.828125 -44.207031 44.140625 -42.03125 C 46.453125 -39.863281 48.25 -37.285156 49.53125 -34.296875 C 50.820312 -31.316406 51.46875 -28.097656 51.46875 -24.640625 C 51.46875 -21.046875 50.800781 -17.742188 49.46875 -14.734375 C 48.132812 -11.722656 46.3125 -9.117188 44 -6.921875 C 41.695312 -4.734375 39.003906 -3.03125 35.921875 -1.8125 C 32.835938 -0.601562 29.546875 0 26.046875 0 Z M 15.46875 -3.078125 L 23.171875 -3.078125 C 27.003906 -3.078125 30.257812 -3.71875 32.9375 -5 C 35.625 -6.289062 37.832031 -7.960938 39.5625 -10.015625 C 41.289062 -12.066406 42.550781 -14.363281 43.34375 -16.90625 C 44.132812 -19.445312 44.53125 -21.976562 44.53125 -24.5 C 44.53125 -27.300781 44.0625 -30 43.125 -32.59375 C 42.195312 -35.1875 40.832031 -37.472656 39.03125 -39.453125 C 37.238281 -41.429688 35.007812 -43.003906 32.34375 -44.171875 C 29.6875 -45.347656 26.628906 -45.9375 23.171875 -45.9375 L 15.46875 -45.9375 Z M 15.46875 -3.078125 "/></g></g></g><g fill="#9b5856" fill-opacity="1"><g transform="translate(959.038875, 1232.820234)"><g><path d="M 2.09375 -49.015625 L 19.046875 -18.546875 L 19.046875 0 L 25.421875 0 L 25.421875 -19.1875 L 42.640625 -49.015625 L 38.859375 -49.015625 L 23.875 -23.171875 L 23.59375 -23.171875 L 9.3125 -49.015625 Z M 2.09375 -49.015625 "/></g></g></g><g fill="#9b5856" fill-opacity="1"><g transform="translate(1003.781379, 1232.820234)"><g><path d="M 2.09375 -49.015625 L 19.46875 0 L 23.671875 0 L 37.03125 -38.296875 L 37.390625 -38.296875 L 50.34375 0 L 54.46875 0 L 71.84375 -49.015625 L 68.609375 -49.015625 L 54.125 -8.125 L 53.84375 -8.125 L 40.1875 -49.015625 L 37.171875 -49.015625 L 23.25 -8.328125 L 22.96875 -8.328125 L 8.546875 -49.015625 Z M 2.09375 -49.015625 "/></g></g></g><g fill="#9b5856" fill-opacity="1"><g transform="translate(1077.722107, 1232.820234)"><g><path d="M 3.5 -24.5 C 3.5 -21.882812 4 -19.09375 5 -16.125 C 6.007812 -13.164062 7.585938 -10.425781 9.734375 -7.90625 C 11.878906 -5.382812 14.609375 -3.296875 17.921875 -1.640625 C 21.234375 0.015625 25.203125 0.84375 29.828125 0.84375 C 32.953125 0.84375 35.785156 0.457031 38.328125 -0.3125 C 40.878906 -1.082031 43.164062 -2.117188 45.1875 -3.421875 C 47.21875 -4.734375 48.976562 -6.238281 50.46875 -7.9375 C 51.96875 -9.644531 53.195312 -11.441406 54.15625 -13.328125 C 55.113281 -15.222656 55.835938 -17.128906 56.328125 -19.046875 C 56.816406 -20.960938 57.0625 -22.78125 57.0625 -24.5 C 57.0625 -27.113281 56.523438 -29.898438 55.453125 -32.859375 C 54.378906 -35.828125 52.722656 -38.570312 50.484375 -41.09375 C 48.242188 -43.613281 45.40625 -45.703125 41.96875 -47.359375 C 38.539062 -49.015625 34.492188 -49.84375 29.828125 -49.84375 C 25.203125 -49.84375 21.234375 -49.023438 17.921875 -47.390625 C 14.609375 -45.765625 11.878906 -43.703125 9.734375 -41.203125 C 7.585938 -38.703125 6.007812 -35.957031 5 -32.96875 C 4 -29.988281 3.5 -27.164062 3.5 -24.5 Z M 10.359375 -24.5 C 10.359375 -27.769531 10.859375 -30.769531 11.859375 -33.5 C 12.867188 -36.226562 14.25 -38.570312 16 -40.53125 C 17.75 -42.5 19.8125 -44.03125 22.1875 -45.125 C 24.570312 -46.21875 27.164062 -46.765625 29.96875 -46.765625 C 32.71875 -46.765625 35.316406 -46.21875 37.765625 -45.125 C 40.222656 -44.03125 42.375 -42.5 44.21875 -40.53125 C 46.0625 -38.570312 47.519531 -36.226562 48.59375 -33.5 C 49.664062 -30.769531 50.203125 -27.769531 50.203125 -24.5 C 50.203125 -21.238281 49.664062 -18.238281 48.59375 -15.5 C 47.519531 -12.769531 46.0625 -10.425781 44.21875 -8.46875 C 42.375 -6.507812 40.222656 -4.976562 37.765625 -3.875 C 35.316406 -2.78125 32.71875 -2.234375 29.96875 -2.234375 C 27.164062 -2.234375 24.570312 -2.78125 22.1875 -3.875 C 19.8125 -4.976562 17.75 -6.507812 16 -8.46875 C 14.25 -10.425781 12.867188 -12.769531 11.859375 -15.5 C 10.859375 -18.238281 10.359375 -21.238281 10.359375 -24.5 Z M 10.359375 -24.5 "/></g></g></g><g fill="#9b5856" fill-opacity="1"><g transform="translate(1138.288996, 1232.820234)"><g><path d="M 8.40625 -49.015625 L 8.40625 0 L 14.765625 0 L 14.765625 -21.640625 L 17.859375 -21.640625 C 19.160156 -21.640625 20.242188 -21.519531 21.109375 -21.28125 C 21.972656 -21.050781 22.753906 -20.65625 23.453125 -20.09375 C 24.148438 -19.53125 24.800781 -18.804688 25.40625 -17.921875 C 26.019531 -17.035156 26.75 -15.941406 27.59375 -14.640625 L 33.125 -6.4375 C 33.820312 -5.363281 34.507812 -4.382812 35.1875 -3.5 C 35.863281 -2.613281 36.597656 -1.851562 37.390625 -1.21875 C 38.179688 -0.59375 39.078125 -0.09375 40.078125 0.28125 C 41.085938 0.65625 42.289062 0.84375 43.6875 0.84375 C 44.71875 0.84375 45.554688 0.796875 46.203125 0.703125 C 46.859375 0.609375 47.515625 0.375 48.171875 0 L 48.171875 -2.59375 C 47.941406 -2.539062 47.707031 -2.503906 47.46875 -2.484375 C 47.238281 -2.460938 47.003906 -2.453125 46.765625 -2.453125 C 45.785156 -2.453125 44.921875 -2.59375 44.171875 -2.875 C 43.429688 -3.15625 42.734375 -3.5625 42.078125 -4.09375 C 41.421875 -4.632812 40.789062 -5.289062 40.1875 -6.0625 C 39.582031 -6.832031 38.953125 -7.707031 38.296875 -8.6875 C 36.335938 -11.53125 34.820312 -13.800781 33.75 -15.5 C 32.675781 -17.207031 31.820312 -18.523438 31.1875 -19.453125 C 30.5625 -20.390625 30.050781 -21.066406 29.65625 -21.484375 C 29.257812 -21.910156 28.78125 -22.265625 28.21875 -22.546875 L 27.515625 -22.890625 L 27.515625 -23.171875 C 29.753906 -23.316406 31.675781 -23.804688 33.28125 -24.640625 C 34.894531 -25.484375 36.210938 -26.535156 37.234375 -27.796875 C 38.265625 -29.054688 39.015625 -30.421875 39.484375 -31.890625 C 39.953125 -33.359375 40.1875 -34.796875 40.1875 -36.203125 C 40.1875 -37.460938 39.941406 -38.835938 39.453125 -40.328125 C 38.960938 -41.816406 38.117188 -43.203125 36.921875 -44.484375 C 35.734375 -45.773438 34.113281 -46.851562 32.0625 -47.71875 C 30.007812 -48.582031 27.421875 -49.015625 24.296875 -49.015625 Z M 14.765625 -45.9375 L 21.84375 -45.9375 C 23.613281 -45.9375 25.210938 -45.675781 26.640625 -45.15625 C 28.066406 -44.644531 29.289062 -43.929688 30.3125 -43.015625 C 31.34375 -42.109375 32.125 -41.023438 32.65625 -39.765625 C 33.195312 -38.503906 33.46875 -37.128906 33.46875 -35.640625 C 33.46875 -34.378906 33.222656 -33.101562 32.734375 -31.8125 C 32.242188 -30.53125 31.507812 -29.363281 30.53125 -28.3125 C 29.550781 -27.269531 28.347656 -26.421875 26.921875 -25.765625 C 25.492188 -25.109375 23.847656 -24.78125 21.984375 -24.78125 L 14.765625 -24.78125 Z M 14.765625 -45.9375 "/></g></g></g><g fill="#9b5856" fill-opacity="1"><g transform="translate(1188.56307, 1232.820234)"><g><path d="M 8.40625 0 L 14.765625 0 L 14.765625 -17.21875 L 22.6875 -25.703125 L 41.3125 0 L 48.59375 0 L 26.75 -30.03125 L 44.53125 -49.015625 L 41.03125 -49.015625 L 14.765625 -21.421875 L 14.765625 -49.015625 L 8.40625 -49.015625 Z M 8.40625 0 "/></g></g></g></svg>